<?xml version="1.0" encoding="utf-8"?>
<!-- Generator: Adobe Illustrator 27.5.0, SVG Export Plug-In . SVG Version: 6.00 Build 0)  -->
<svg version="1.1" xmlns="http://www.w3.org/2000/svg" xmlns:xlink="http://www.w3.org/1999/xlink" x="0px" y="0px"
	 viewBox="0 0 500 500" style="enable-background:new 0 0 500 500;" xml:space="preserve">
<g id="BACKGROUND">
	<rect style="fill-rule:evenodd;clip-rule:evenodd;fill:#FFFFFF;" width="500" height="500"/>
</g>
<g id="OBJECTS">
	<g>
		<path style="fill:#F6BB00;" d="M159.626,160.84c0.694,3.387,0.366,6.856-0.975,10.305c-2.406,6.185-7.972,12.055-17.018,17.947
			c-5.675,3.688-9.43,7.592-10.87,11.293c-0.884,2.274-0.898,4.561-0.039,6.798c3.15,8.186,17.833,15.95,32.041,13.681
			c7.315-1.166,12.211-4.816,14.559-10.851c0.898-2.31,1.429-4.971,1.578-7.908c0.383-7.4,1.437-13.22,3.222-17.81
			c0,0,0,0,0.001-0.002c1.88-4.833,4.652-8.411,8.236-10.631c10.52-6.485,24.842-0.19,41.428,7.096
			c6.658,2.925,14.126,6.197,21.659,8.721c0.5-4.424,0.928-8.998,1.354-13.596c1.346-14.564,2.732-29.566,6.714-39.804
			c2.67-6.864,6.375-11.235,11.325-13.362c7.829-3.36,17.552-0.324,29.718,9.283c6.531,5.164,16.511,9.573,27.022,1.271
			c4.101-3.242,7.478-7.898,9.506-13.112c2.345-6.028,2.592-12.105,0.66-16.26c-3.684-7.912-14.315-7.552-22.585-5.856
			c-16.84,3.456-25.756,2.395-29.815-3.552c-3.667-5.415-1.237-11.664-0.438-13.717c1.565-4.024,4.344-8.943,7.677-14.294
			c-16.667,6.549-36.03,19.644-44.595,33.847l-0.001-0.001c-11.188-18.554-40.808-35.229-58.762-37.871
			c-44.605-7.736-83.755,13.903-96.993,61.612C117.526,129.52,155.634,141.331,159.626,160.84z"/>
		<path style="fill:#FFFFFF;" d="M150.102,162.79c1.371,6.689-6.732,13.569-13.776,18.157
			c-18.169,11.81-16.994,23.692-14.677,29.723c5.136,13.352,25.066,22.602,42.649,19.796c14.676-2.34,23.541-12.499,24.315-27.872
			c0.582-11.252,2.891-18.204,6.866-20.664c6.162-3.8,18.908,1.8,32.4,7.729c7.376,3.242,15.648,6.861,24.179,9.59
			c0.07-0.229,0.128-0.463,0.214-0.685c0.336-0.863,0.818-1.649,1.377-2.376c-0.46-1.349-0.66-2.802-0.479-4.293
			c0.097-0.796,0.186-1.608,0.277-2.416c-7.533-2.523-15.001-5.796-21.659-8.721c-16.585-7.287-30.908-13.581-41.428-7.096
			c-3.584,2.22-6.356,5.798-8.236,10.631c-0.001,0.002-0.001,0.002-0.001,0.002c-1.785,4.59-2.839,10.41-3.222,17.81
			c-0.149,2.937-0.68,5.598-1.578,7.908c-2.348,6.035-7.244,9.685-14.559,10.851c-14.208,2.269-28.891-5.495-32.041-13.681
			c-0.859-2.237-0.846-4.524,0.039-6.798c1.44-3.701,5.194-7.604,10.87-11.293c9.046-5.892,14.613-11.762,17.018-17.947
			c1.341-3.449,1.669-6.917,0.975-10.305c-3.992-19.51-42.1-31.321-65.39-36.772c-0.326,1.176-0.651,2.354-0.946,3.562
			c-0.476,1.964-0.882,3.924-1.258,5.883C124.851,141.112,148.007,152.555,150.102,162.79z"/>
		<path style="fill:#0C96E4;" d="M208.997,299.163c10.205-3.017,21.021,7.186,28.271,15.123c7.985,8.74,15.698,11.106,22.924,7.035
			c4.33-2.437,8.26-7.354,10.515-13.152c2.281-5.865,2.733-11.832,1.272-16.804c-3.051-10.384-13.356-11.995-21.465-11.518
			c-9.849,0.57-21.761,0.21-26.575-7.691c-3.441-5.65-1.572-12.139,0.135-16.527c2.439-6.269,6.82-13.632,11.054-20.751
			c5.223-8.785,10.626-17.869,14.175-26.992c1.103-2.836,1.969-5.553,2.578-8.074c0.046-0.192,0.118-0.374,0.176-0.562
			c-8.531-2.729-16.802-6.347-24.179-9.59c-13.492-5.928-26.239-11.528-32.4-7.729c-3.975,2.46-6.284,9.411-6.866,20.664
			c-0.774,15.372-9.639,25.532-24.315,27.872c-17.583,2.806-37.513-6.444-42.649-19.796c-2.317-6.031-3.492-17.913,14.677-29.723
			c7.044-4.587,15.147-11.467,13.776-18.157c-2.095-10.235-25.251-21.678-58.069-29.277
			c-14.22,74.096,41.954,144.121,104.081,182.293c0.414-1.334,0.845-2.624,1.309-3.817
			C198.443,309.366,201.549,301.38,208.997,299.163z"/>
		<path style="fill:#FFFFFF;" d="M287.348,94.491c4.059,5.947,12.975,7.008,29.815,3.552c8.27-1.696,18.9-2.056,22.585,5.856
			c1.932,4.154,1.685,10.231-0.66,16.26c-2.028,5.214-5.406,9.87-9.506,13.112c-10.511,8.302-20.491,3.893-27.022-1.271
			c-12.166-9.607-21.888-12.643-29.718-9.283c-4.951,2.126-8.655,6.497-11.325,13.362c-3.982,10.238-5.368,25.24-6.714,39.804
			c-0.425,4.599-0.854,9.172-1.354,13.596c-0.091,0.807-0.18,1.62-0.277,2.416c-0.181,1.491,0.019,2.944,0.479,4.293
			c0.811-1.057,1.813-1.967,3.007-2.622c1.913-1.051,4.108-1.407,6.231-1.063c0.607-5.079,1.102-10.388,1.596-15.725
			c1.798-19.467,3.829-41.535,12.195-45.127c4.131-1.773,10.999,0.985,19.857,7.979c12.917,10.217,27.157,10.681,39.072,1.27
			c5.442-4.299,9.896-10.413,12.542-17.216c3.335-8.574,3.487-17.279,0.414-23.884c-2.876-6.179-11.033-15.859-33.354-11.281
			c-17.502,3.594-19.743,0.621-19.83,0.492c-2.05-3.028,7.359-17.434,13.369-26.554c-4.208,0.62-9.06,2.019-14.161,4.023
			c-3.333,5.35-6.112,10.269-7.677,14.294C286.111,82.827,283.68,89.076,287.348,94.491z"/>
		<path style="fill:#1EB742;" d="M295.378,89.012c0.087,0.128,2.329,3.101,19.83-0.492c22.322-4.579,30.478,5.101,33.354,11.281
			c3.072,6.605,2.921,15.31-0.414,23.884c-2.646,6.802-7.1,12.917-12.542,17.216c-11.915,9.411-26.155,8.948-39.072-1.27
			c-8.858-6.993-15.726-9.751-19.857-7.979c-8.365,3.592-10.396,25.66-12.195,45.127c-0.494,5.337-0.989,10.646-1.596,15.725
			c0.54,0.087,1.076,0.208,1.601,0.388c10.226,3.509,19.901,8.676,28.44,13.235c10.145,5.413,21.648,11.551,25.443,9.174
			c0.259-0.162,1.052-0.661,1.858-2.733c1.339-3.442,1.873-8.952,1.587-16.375c-0.22-5.368,0.486-10.192,2.09-14.318
			c3.081-7.919,9.316-13.244,18.034-15.405c16.566-4.102,38.522,5.184,45.175,19.111c2.671,5.588,2.903,11.571,0.672,17.305
			c-2.064,5.305-6.084,10.174-12.292,14.886c-7.665,5.798-9.963,9.638-10.653,11.41c-0.438,1.126-0.387,1.793-0.312,2.196
			c0.71,3.799,8.224,7.443,17.436,10.699c22.798-34.112,34.573-73.776,24.727-114.445c-12.242-50.202-52.234-73.101-97.939-65.174
			c-0.002,0-0.005,0.001-0.007,0.001C302.737,71.578,293.328,85.984,295.378,89.012z"/>
		<path style="fill:#FFFFFF;" d="M211.771,308.481c1.663-0.491,6.775-0.276,18.319,12.362c15.01,16.426,28.292,12.658,34.875,8.948
			c6.318-3.558,11.714-10.157,14.803-18.099c3.056-7.858,3.602-16.05,1.539-23.069c-3.732-12.699-15.163-19.435-31.363-18.483
			c-13.82,0.8-16.982-1.861-17.702-3.043c-2.512-4.122,4.788-16.401,11.242-27.251c6.923-11.643,14.71-24.741,17.848-37.758
			c9.474,3.25,18.745,8.198,27.014,12.614c14.874,7.935,26.622,14.201,35.187,8.835c6.046-3.791,8.582-12.6,7.997-27.722
			c-0.447-11.011,3.849-17.706,12.746-19.91c12.153-3.01,29.347,3.984,34.066,13.863c3.173,6.641,0.234,13.455-8.727,20.256
			c-11.192,8.468-15.983,16.045-14.639,23.157c1.446,7.742,9.659,12.844,21.171,17.167c2.011-2.718,3.949-5.478,5.817-8.274
			c-9.212-3.256-16.726-6.9-17.436-10.699c-0.075-0.404-0.126-1.07,0.312-2.196c0.689-1.772,2.988-5.612,10.653-11.41
			c6.208-4.711,10.229-9.581,12.292-14.886c2.23-5.734,1.998-11.718-0.672-17.305c-6.652-13.926-28.608-23.213-45.175-19.111
			c-8.718,2.161-14.953,7.486-18.034,15.405c-1.605,4.126-2.31,8.95-2.09,14.318c0.286,7.423-0.248,12.933-1.587,16.375
			c-0.806,2.073-1.599,2.572-1.858,2.733c-3.795,2.377-15.298-3.761-25.443-9.174c-8.539-4.559-18.214-9.726-28.44-13.235
			c-0.525-0.18-1.061-0.301-1.601-0.388c-2.123-0.344-4.318,0.012-6.231,1.063c-1.194,0.655-2.196,1.565-3.007,2.622
			c-0.559,0.727-1.041,1.513-1.377,2.376c-0.086,0.221-0.144,0.455-0.214,0.685c-0.058,0.188-0.13,0.37-0.176,0.562
			c-0.609,2.521-1.475,5.238-2.578,8.074c-3.549,9.123-8.952,18.207-14.175,26.992c-4.234,7.12-8.616,14.482-11.054,20.751
			c-1.707,4.389-3.577,10.877-0.135,16.527c4.814,7.901,16.726,8.261,26.575,7.691c8.109-0.478,18.413,1.134,21.465,11.518
			c1.461,4.972,1.009,10.939-1.272,16.804c-2.255,5.798-6.185,10.715-10.515,13.152c-7.225,4.071-14.939,1.705-22.924-7.035
			c-7.25-7.937-18.066-18.14-28.271-15.123c-7.449,2.217-10.555,10.203-11.575,12.826c-0.464,1.193-0.894,2.483-1.309,3.817
			c2.867,1.762,5.747,3.452,8.633,5.076C206.559,314.309,208.805,309.364,211.771,308.481z"/>
		<path style="fill:#FF3334;" d="M376.149,250.349c-11.512-4.324-19.725-9.425-21.171-17.167
			c-1.344-7.112,3.447-14.689,14.639-23.157c8.962-6.801,11.9-13.614,8.727-20.256c-4.72-9.879-21.913-16.873-34.066-13.863
			c-8.897,2.203-13.193,8.899-12.746,19.91c0.585,15.122-1.951,23.931-7.997,27.722c-8.564,5.366-20.313-0.9-35.187-8.835
			c-8.269-4.416-17.54-9.365-27.014-12.614c-3.138,13.017-10.925,26.114-17.848,37.758c-6.454,10.85-13.754,23.129-11.242,27.251
			c0.72,1.182,3.882,3.843,17.702,3.043c16.199-0.952,27.63,5.784,31.363,18.483c2.063,7.019,1.517,15.212-1.539,23.069
			c-3.089,7.942-8.486,14.54-14.803,18.099c-6.583,3.71-19.866,7.478-34.875-8.948c-11.544-12.638-16.656-12.854-18.319-12.362
			c-2.966,0.883-5.213,5.828-7.025,12.4c15.216,8.558,30.607,15.16,45.245,19.394C293.526,327.683,343.717,294.196,376.149,250.349z
			"/>
	</g>
</g>
<g id="TEXTS">
	<g>
		<g>
			
				<text transform="matrix(1 0 0 1 123.7881 418.2734)" style="fill:#0C96E4; font-family:'Cabin-Bold'; font-size:60.4615px; letter-spacing:6;">AUTISM</text>
		</g>
		<g>
			
				<text transform="matrix(1 0 0 1 123.6855 449.9023)" style="fill:#FF3334; font-family:'Cabin-Medium'; font-size:28.4769px; letter-spacing:2;">A W A R E N E S S</text>
		</g>
	</g>
</g>
</svg>
